<mxfile host="app.diagrams.net" modified="2021-05-13T07:37:36.778Z" agent="5.0 (X11; Linux x86_64) AppleWebKit/537.36 (KHTML, like Gecko) Chrome/89.0.4389.90 Safari/537.36" etag="96Os6M7WUnjnDjdGjNZG" version="14.5.1" type="github">
  <diagram id="UsFPgV3Cs8h_4uy7ssRZ" name="Page-1">
    <mxGraphModel dx="942" dy="542" grid="1" gridSize="10" guides="1" tooltips="1" connect="1" arrows="1" fold="1" page="1" pageScale="1" pageWidth="827" pageHeight="1169" math="0" shadow="0">
      <root>
        <mxCell id="0" />
        <mxCell id="1" parent="0" />
        <mxCell id="ID2oQeKCnGhYafY-IBMi-6" value="" style="endArrow=classic;html=1;strokeWidth=1;exitX=0.5;exitY=1;exitDx=0;exitDy=0;" edge="1" parent="1" source="zjYxZsvsgYyvN_UdOkjf-8" target="zjYxZsvsgYyvN_UdOkjf-9">
          <mxGeometry width="50" height="50" relative="1" as="geometry">
            <mxPoint x="369.5" y="280" as="sourcePoint" />
            <mxPoint x="369.5" y="320" as="targetPoint" />
          </mxGeometry>
        </mxCell>
        <mxCell id="ID2oQeKCnGhYafY-IBMi-7" value="" style="endArrow=classic;html=1;strokeWidth=1;exitX=0.5;exitY=1;exitDx=0;exitDy=0;entryX=0.5;entryY=0;entryDx=0;entryDy=0;" edge="1" parent="1" source="zjYxZsvsgYyvN_UdOkjf-12" target="zjYxZsvsgYyvN_UdOkjf-13">
          <mxGeometry width="50" height="50" relative="1" as="geometry">
            <mxPoint x="379.5" y="290" as="sourcePoint" />
            <mxPoint x="379.5" y="330" as="targetPoint" />
          </mxGeometry>
        </mxCell>
        <mxCell id="zjYxZsvsgYyvN_UdOkjf-40" value="" style="endArrow=classic;html=1;exitX=1;exitY=0.5;exitDx=0;exitDy=0;entryX=0;entryY=0.5;entryDx=0;entryDy=0;strokeWidth=1;" parent="1" source="zjYxZsvsgYyvN_UdOkjf-30" target="zjYxZsvsgYyvN_UdOkjf-31" edge="1">
          <mxGeometry width="50" height="50" relative="1" as="geometry">
            <mxPoint x="300" y="170" as="sourcePoint" />
            <mxPoint x="570" y="170" as="targetPoint" />
          </mxGeometry>
        </mxCell>
        <mxCell id="zjYxZsvsgYyvN_UdOkjf-36" value="" style="endArrow=classic;html=1;exitX=1;exitY=0.5;exitDx=0;exitDy=0;entryX=0;entryY=0.5;entryDx=0;entryDy=0;strokeWidth=1;" parent="1" source="zjYxZsvsgYyvN_UdOkjf-25" target="zjYxZsvsgYyvN_UdOkjf-4" edge="1">
          <mxGeometry width="50" height="50" relative="1" as="geometry">
            <mxPoint x="300" y="170" as="sourcePoint" />
            <mxPoint x="570" y="170" as="targetPoint" />
          </mxGeometry>
        </mxCell>
        <mxCell id="zjYxZsvsgYyvN_UdOkjf-37" value="" style="endArrow=classic;html=1;exitX=1;exitY=0.5;exitDx=0;exitDy=0;entryX=0;entryY=0.5;entryDx=0;entryDy=0;strokeWidth=1;" parent="1" source="zjYxZsvsgYyvN_UdOkjf-29" target="zjYxZsvsgYyvN_UdOkjf-5" edge="1">
          <mxGeometry width="50" height="50" relative="1" as="geometry">
            <mxPoint x="310" y="180" as="sourcePoint" />
            <mxPoint x="580" y="180" as="targetPoint" />
          </mxGeometry>
        </mxCell>
        <mxCell id="zjYxZsvsgYyvN_UdOkjf-35" value="" style="endArrow=classic;html=1;exitX=1;exitY=0.5;exitDx=0;exitDy=0;entryX=0;entryY=0.5;entryDx=0;entryDy=0;strokeWidth=1;" parent="1" source="zjYxZsvsgYyvN_UdOkjf-21" target="zjYxZsvsgYyvN_UdOkjf-3" edge="1">
          <mxGeometry width="50" height="50" relative="1" as="geometry">
            <mxPoint x="300" y="90" as="sourcePoint" />
            <mxPoint x="570" y="90" as="targetPoint" />
          </mxGeometry>
        </mxCell>
        <mxCell id="zjYxZsvsgYyvN_UdOkjf-34" value="" style="endArrow=classic;html=1;exitX=1;exitY=0.5;exitDx=0;exitDy=0;entryX=0;entryY=0.5;entryDx=0;entryDy=0;strokeWidth=1;" parent="1" source="zjYxZsvsgYyvN_UdOkjf-17" target="zjYxZsvsgYyvN_UdOkjf-2" edge="1">
          <mxGeometry width="50" height="50" relative="1" as="geometry">
            <mxPoint x="340" y="230" as="sourcePoint" />
            <mxPoint x="390" y="180" as="targetPoint" />
          </mxGeometry>
        </mxCell>
        <mxCell id="zjYxZsvsgYyvN_UdOkjf-1" value="" style="rounded=1;whiteSpace=wrap;html=1;fillColor=#fff2cc;strokeColor=#d6b656;" parent="1" vertex="1">
          <mxGeometry x="560" y="40" width="40" height="320" as="geometry" />
        </mxCell>
        <mxCell id="zjYxZsvsgYyvN_UdOkjf-2" value="" style="ellipse;whiteSpace=wrap;html=1;fillColor=#ffe6cc;strokeColor=#d79b00;" parent="1" vertex="1">
          <mxGeometry x="560" y="60" width="40" height="40" as="geometry" />
        </mxCell>
        <mxCell id="zjYxZsvsgYyvN_UdOkjf-3" value="" style="ellipse;whiteSpace=wrap;html=1;fillColor=#ffe6cc;strokeColor=#d79b00;" parent="1" vertex="1">
          <mxGeometry x="560" y="140" width="40" height="40" as="geometry" />
        </mxCell>
        <mxCell id="zjYxZsvsgYyvN_UdOkjf-4" value="" style="ellipse;whiteSpace=wrap;html=1;fillColor=#ffe6cc;strokeColor=#d79b00;" parent="1" vertex="1">
          <mxGeometry x="560" y="220" width="40" height="40" as="geometry" />
        </mxCell>
        <mxCell id="zjYxZsvsgYyvN_UdOkjf-5" value="" style="ellipse;whiteSpace=wrap;html=1;fillColor=#ffe6cc;strokeColor=#d79b00;" parent="1" vertex="1">
          <mxGeometry x="560" y="300" width="40" height="40" as="geometry" />
        </mxCell>
        <mxCell id="zjYxZsvsgYyvN_UdOkjf-6" value="&lt;b&gt;LSTM&lt;/b&gt;" style="rounded=1;whiteSpace=wrap;html=1;fillColor=#fff2cc;strokeColor=#d6b656;" parent="1" vertex="1">
          <mxGeometry x="460" y="60" width="60" height="40" as="geometry" />
        </mxCell>
        <mxCell id="zjYxZsvsgYyvN_UdOkjf-7" value="&lt;b&gt;LSTM&lt;/b&gt;" style="rounded=1;whiteSpace=wrap;html=1;fillColor=#fff2cc;strokeColor=#d6b656;" parent="1" vertex="1">
          <mxGeometry x="460" y="140" width="60" height="40" as="geometry" />
        </mxCell>
        <mxCell id="zjYxZsvsgYyvN_UdOkjf-8" value="&lt;b&gt;LSTM&lt;/b&gt;" style="rounded=1;whiteSpace=wrap;html=1;fillColor=#fff2cc;strokeColor=#d6b656;" parent="1" vertex="1">
          <mxGeometry x="460" y="220" width="60" height="40" as="geometry" />
        </mxCell>
        <mxCell id="zjYxZsvsgYyvN_UdOkjf-9" value="&lt;b&gt;LSTM&lt;/b&gt;" style="rounded=1;whiteSpace=wrap;html=1;fillColor=#fff2cc;strokeColor=#d6b656;" parent="1" vertex="1">
          <mxGeometry x="460" y="300" width="60" height="40" as="geometry" />
        </mxCell>
        <mxCell id="zjYxZsvsgYyvN_UdOkjf-10" value="&lt;b&gt;LSTM&lt;/b&gt;" style="rounded=1;whiteSpace=wrap;html=1;fillColor=#fff2cc;strokeColor=#d6b656;" parent="1" vertex="1">
          <mxGeometry x="320" y="60" width="59" height="40" as="geometry" />
        </mxCell>
        <mxCell id="zjYxZsvsgYyvN_UdOkjf-11" value="&lt;b&gt;LSTM&lt;/b&gt;" style="rounded=1;whiteSpace=wrap;html=1;fillColor=#fff2cc;strokeColor=#d6b656;" parent="1" vertex="1">
          <mxGeometry x="320" y="140" width="59" height="40" as="geometry" />
        </mxCell>
        <mxCell id="zjYxZsvsgYyvN_UdOkjf-12" value="&lt;b&gt;LSTM&lt;/b&gt;" style="rounded=1;whiteSpace=wrap;html=1;fillColor=#fff2cc;strokeColor=#d6b656;" parent="1" vertex="1">
          <mxGeometry x="320" y="220" width="59" height="40" as="geometry" />
        </mxCell>
        <mxCell id="zjYxZsvsgYyvN_UdOkjf-13" value="&lt;b&gt;LSTM&lt;/b&gt;" style="rounded=1;whiteSpace=wrap;html=1;fillColor=#fff2cc;strokeColor=#d6b656;" parent="1" vertex="1">
          <mxGeometry x="320" y="300" width="59" height="40" as="geometry" />
        </mxCell>
        <mxCell id="zjYxZsvsgYyvN_UdOkjf-14" value="0.85" style="rounded=0;whiteSpace=wrap;html=1;" parent="1" vertex="1">
          <mxGeometry x="130" y="60" width="40" height="40" as="geometry" />
        </mxCell>
        <mxCell id="zjYxZsvsgYyvN_UdOkjf-15" value="0.92" style="rounded=0;whiteSpace=wrap;html=1;" parent="1" vertex="1">
          <mxGeometry x="170" y="60" width="40" height="40" as="geometry" />
        </mxCell>
        <mxCell id="zjYxZsvsgYyvN_UdOkjf-16" value="&lt;b&gt;...&lt;/b&gt;" style="rounded=0;whiteSpace=wrap;html=1;" parent="1" vertex="1">
          <mxGeometry x="210" y="60" width="40" height="40" as="geometry" />
        </mxCell>
        <mxCell id="zjYxZsvsgYyvN_UdOkjf-17" value="0.64" style="rounded=0;whiteSpace=wrap;html=1;" parent="1" vertex="1">
          <mxGeometry x="250" y="60" width="40" height="40" as="geometry" />
        </mxCell>
        <mxCell id="zjYxZsvsgYyvN_UdOkjf-18" value="0.75" style="rounded=0;whiteSpace=wrap;html=1;" parent="1" vertex="1">
          <mxGeometry x="130" y="140" width="40" height="40" as="geometry" />
        </mxCell>
        <mxCell id="zjYxZsvsgYyvN_UdOkjf-19" value="0.63" style="rounded=0;whiteSpace=wrap;html=1;" parent="1" vertex="1">
          <mxGeometry x="170" y="140" width="40" height="40" as="geometry" />
        </mxCell>
        <mxCell id="zjYxZsvsgYyvN_UdOkjf-20" value="&lt;b&gt;...&lt;/b&gt;" style="rounded=0;whiteSpace=wrap;html=1;" parent="1" vertex="1">
          <mxGeometry x="210" y="140" width="40" height="40" as="geometry" />
        </mxCell>
        <mxCell id="zjYxZsvsgYyvN_UdOkjf-21" value="0.42" style="rounded=0;whiteSpace=wrap;html=1;" parent="1" vertex="1">
          <mxGeometry x="250" y="140" width="40" height="40" as="geometry" />
        </mxCell>
        <mxCell id="zjYxZsvsgYyvN_UdOkjf-22" value="0.85" style="rounded=0;whiteSpace=wrap;html=1;" parent="1" vertex="1">
          <mxGeometry x="130" y="220" width="40" height="40" as="geometry" />
        </mxCell>
        <mxCell id="zjYxZsvsgYyvN_UdOkjf-23" value="0.27" style="rounded=0;whiteSpace=wrap;html=1;" parent="1" vertex="1">
          <mxGeometry x="170" y="220" width="40" height="40" as="geometry" />
        </mxCell>
        <mxCell id="zjYxZsvsgYyvN_UdOkjf-24" value="&lt;b&gt;...&lt;/b&gt;" style="rounded=0;whiteSpace=wrap;html=1;" parent="1" vertex="1">
          <mxGeometry x="210" y="220" width="40" height="40" as="geometry" />
        </mxCell>
        <mxCell id="zjYxZsvsgYyvN_UdOkjf-25" value="0.84" style="rounded=0;whiteSpace=wrap;html=1;" parent="1" vertex="1">
          <mxGeometry x="250" y="220" width="40" height="40" as="geometry" />
        </mxCell>
        <mxCell id="zjYxZsvsgYyvN_UdOkjf-26" value="0.65" style="rounded=0;whiteSpace=wrap;html=1;" parent="1" vertex="1">
          <mxGeometry x="130" y="300" width="40" height="40" as="geometry" />
        </mxCell>
        <mxCell id="zjYxZsvsgYyvN_UdOkjf-27" value="0.71" style="rounded=0;whiteSpace=wrap;html=1;" parent="1" vertex="1">
          <mxGeometry x="170" y="300" width="40" height="40" as="geometry" />
        </mxCell>
        <mxCell id="zjYxZsvsgYyvN_UdOkjf-28" value="&lt;b&gt;...&lt;/b&gt;" style="rounded=0;whiteSpace=wrap;html=1;" parent="1" vertex="1">
          <mxGeometry x="210" y="300" width="40" height="40" as="geometry" />
        </mxCell>
        <mxCell id="zjYxZsvsgYyvN_UdOkjf-29" value="0.92" style="rounded=0;whiteSpace=wrap;html=1;" parent="1" vertex="1">
          <mxGeometry x="250" y="300" width="40" height="40" as="geometry" />
        </mxCell>
        <mxCell id="zjYxZsvsgYyvN_UdOkjf-31" value="&lt;b&gt;&lt;font style=&quot;font-size: 18px&quot;&gt;X&lt;/font&gt;&lt;/b&gt;" style="ellipse;whiteSpace=wrap;html=1;fillColor=#ffe6cc;strokeColor=#d79b00;" parent="1" vertex="1">
          <mxGeometry x="680" y="180" width="40" height="40" as="geometry" />
        </mxCell>
        <mxCell id="zjYxZsvsgYyvN_UdOkjf-39" value="" style="rounded=1;whiteSpace=wrap;html=1;fillColor=#FFFFFF;strokeColor=#FFFFFF;" parent="1" vertex="1">
          <mxGeometry x="400" y="40" width="40" height="320" as="geometry" />
        </mxCell>
        <mxCell id="zjYxZsvsgYyvN_UdOkjf-30" value="" style="ellipse;whiteSpace=wrap;html=1;fillColor=#f8cecc;strokeColor=#b85450;" parent="1" vertex="1">
          <mxGeometry x="620" y="180" width="40" height="40" as="geometry" />
        </mxCell>
        <mxCell id="zjYxZsvsgYyvN_UdOkjf-41" value="" style="endArrow=classic;html=1;exitX=1;exitY=0.5;exitDx=0;exitDy=0;entryX=0;entryY=0.5;entryDx=0;entryDy=0;strokeWidth=1;" parent="1" source="zjYxZsvsgYyvN_UdOkjf-1" target="zjYxZsvsgYyvN_UdOkjf-30" edge="1">
          <mxGeometry width="50" height="50" relative="1" as="geometry">
            <mxPoint x="600" y="200" as="sourcePoint" />
            <mxPoint x="720" y="200" as="targetPoint" />
          </mxGeometry>
        </mxCell>
        <mxCell id="zjYxZsvsgYyvN_UdOkjf-42" value="" style="endArrow=none;html=1;strokeWidth=1;curved=1;endFill=0;entryX=1;entryY=0;entryDx=0;entryDy=0;exitX=0;exitY=1;exitDx=0;exitDy=0;" parent="1" source="zjYxZsvsgYyvN_UdOkjf-30" target="zjYxZsvsgYyvN_UdOkjf-30" edge="1">
          <mxGeometry width="50" height="50" relative="1" as="geometry">
            <mxPoint x="650" y="290" as="sourcePoint" />
            <mxPoint x="690" y="260" as="targetPoint" />
            <Array as="points">
              <mxPoint x="654" y="214" />
              <mxPoint x="626" y="186" />
            </Array>
          </mxGeometry>
        </mxCell>
        <mxCell id="zjYxZsvsgYyvN_UdOkjf-44" value="&lt;b&gt;...&lt;/b&gt;" style="text;html=1;strokeColor=none;fillColor=none;align=center;verticalAlign=middle;whiteSpace=wrap;rounded=0;" parent="1" vertex="1">
          <mxGeometry x="190" y="270" width="40" height="14" as="geometry" />
        </mxCell>
        <mxCell id="zjYxZsvsgYyvN_UdOkjf-45" value="&lt;b&gt;...&lt;/b&gt;" style="text;html=1;align=center;verticalAlign=middle;whiteSpace=wrap;rounded=0;fillColor=#ffffff;" parent="1" vertex="1">
          <mxGeometry x="329.5" y="270" width="40" height="13" as="geometry" />
        </mxCell>
        <mxCell id="zjYxZsvsgYyvN_UdOkjf-46" value="&lt;b&gt;...&lt;/b&gt;" style="text;html=1;strokeColor=none;align=center;verticalAlign=middle;whiteSpace=wrap;rounded=0;fillColor=#ffffff;" parent="1" vertex="1">
          <mxGeometry x="470" y="270" width="40" height="16" as="geometry" />
        </mxCell>
        <mxCell id="zjYxZsvsgYyvN_UdOkjf-47" value="&lt;b&gt;...&lt;/b&gt;" style="text;html=1;strokeColor=none;fillColor=none;align=center;verticalAlign=middle;whiteSpace=wrap;rounded=0;" parent="1" vertex="1">
          <mxGeometry x="400" y="70" width="40" height="20" as="geometry" />
        </mxCell>
        <mxCell id="zjYxZsvsgYyvN_UdOkjf-48" value="&lt;b&gt;...&lt;/b&gt;" style="text;html=1;strokeColor=none;fillColor=none;align=center;verticalAlign=middle;whiteSpace=wrap;rounded=0;" parent="1" vertex="1">
          <mxGeometry x="400" y="150" width="40" height="20" as="geometry" />
        </mxCell>
        <mxCell id="zjYxZsvsgYyvN_UdOkjf-49" value="&lt;b&gt;...&lt;/b&gt;" style="text;html=1;strokeColor=none;fillColor=none;align=center;verticalAlign=middle;whiteSpace=wrap;rounded=0;" parent="1" vertex="1">
          <mxGeometry x="400" y="230" width="40" height="20" as="geometry" />
        </mxCell>
        <mxCell id="zjYxZsvsgYyvN_UdOkjf-50" value="&lt;b&gt;...&lt;/b&gt;" style="text;html=1;strokeColor=none;fillColor=none;align=center;verticalAlign=middle;whiteSpace=wrap;rounded=0;" parent="1" vertex="1">
          <mxGeometry x="400" y="310" width="40" height="20" as="geometry" />
        </mxCell>
        <mxCell id="zjYxZsvsgYyvN_UdOkjf-51" value="&lt;b&gt;...&lt;/b&gt;" style="text;html=1;strokeColor=none;fillColor=none;align=center;verticalAlign=middle;whiteSpace=wrap;rounded=0;" parent="1" vertex="1">
          <mxGeometry x="560" y="270" width="40" height="20" as="geometry" />
        </mxCell>
        <mxCell id="ID2oQeKCnGhYafY-IBMi-1" value="" style="endArrow=classic;html=1;strokeWidth=1;exitX=0.5;exitY=1;exitDx=0;exitDy=0;" edge="1" parent="1" source="zjYxZsvsgYyvN_UdOkjf-10" target="zjYxZsvsgYyvN_UdOkjf-11">
          <mxGeometry width="50" height="50" relative="1" as="geometry">
            <mxPoint x="390" y="250" as="sourcePoint" />
            <mxPoint x="440" y="200" as="targetPoint" />
          </mxGeometry>
        </mxCell>
        <mxCell id="ID2oQeKCnGhYafY-IBMi-2" value="" style="endArrow=classic;html=1;strokeWidth=1;exitX=0.5;exitY=1;exitDx=0;exitDy=0;" edge="1" parent="1" source="zjYxZsvsgYyvN_UdOkjf-11" target="zjYxZsvsgYyvN_UdOkjf-12">
          <mxGeometry width="50" height="50" relative="1" as="geometry">
            <mxPoint x="359.5" y="110" as="sourcePoint" />
            <mxPoint x="359.5" y="150" as="targetPoint" />
          </mxGeometry>
        </mxCell>
        <mxCell id="ID2oQeKCnGhYafY-IBMi-4" value="" style="endArrow=classic;html=1;strokeWidth=1;exitX=0.5;exitY=1;exitDx=0;exitDy=0;" edge="1" parent="1" source="zjYxZsvsgYyvN_UdOkjf-6" target="zjYxZsvsgYyvN_UdOkjf-7">
          <mxGeometry width="50" height="50" relative="1" as="geometry">
            <mxPoint x="349.5" y="260" as="sourcePoint" />
            <mxPoint x="349.5" y="300" as="targetPoint" />
          </mxGeometry>
        </mxCell>
        <mxCell id="ID2oQeKCnGhYafY-IBMi-5" value="" style="endArrow=classic;html=1;strokeWidth=1;exitX=0.5;exitY=1;exitDx=0;exitDy=0;" edge="1" parent="1" source="zjYxZsvsgYyvN_UdOkjf-7" target="zjYxZsvsgYyvN_UdOkjf-8">
          <mxGeometry width="50" height="50" relative="1" as="geometry">
            <mxPoint x="359.5" y="270" as="sourcePoint" />
            <mxPoint x="359.5" y="310" as="targetPoint" />
          </mxGeometry>
        </mxCell>
      </root>
    </mxGraphModel>
  </diagram>
</mxfile>
